<svg width="15" height="10" viewBox="0 0 15 10" fill="none" xmlns="http://www.w3.org/2000/svg">
<path fill-rule="evenodd" clip-rule="evenodd" d="M0.00797467 9.81659V0H4.54546C6.00479 0 7.18501 1.18022 7.18501 2.63955C7.18501 3.5646 6.89793 4.13876 5.85327 4.72887C7.10527 5.29506 7.44817 6.08453 7.44817 7.19299C7.44817 8.68422 6.12441 9.82457 4.63318 9.82457H0L0.00797467 9.81659ZM1.92983 1.61882V3.97927H4.17863C4.17863 3.97927 5.27114 3.97927 5.27114 2.79904C5.27114 1.61882 4.17863 1.61882 4.17863 1.61882H1.92983ZM1.92983 8.14993V5.59809H4.33812C4.72887 5.59809 5.54227 5.79745 5.54227 7.0016C5.54227 7.89474 4.73685 8.13398 4.33812 8.14195H1.92983V8.14993Z" fill="url(#paint0_linear_42_181)"/>
<path fill-rule="evenodd" clip-rule="evenodd" d="M11.5629 2.70337C10.1834 2.70337 8.13391 3.69221 8.13391 6.33176C8.13391 7.93463 9.01111 10 11.6507 10C13.7639 10 14.7368 8.45297 14.9521 7.67945H12.9664C12.8628 8.03033 12.48 8.42108 11.6507 8.42108C10.4465 8.42108 10.0159 7.39237 9.95209 6.87403H14.9521V6.33176C14.9521 3.69221 12.9425 2.70337 11.5629 2.70337ZM11.5629 4.21055C10.4385 4.21055 10.0239 5.14356 9.95209 5.60608H12.9664C12.9664 5.14356 12.6873 4.21055 11.555 4.21055H11.5629Z" fill="url(#paint1_linear_42_181)"/>
<path d="M9.16266 0.558167V1.77826H13.8995V0.558167H9.16266Z" fill="url(#paint2_linear_42_181)"/>
<defs>
<linearGradient id="paint0_linear_42_181" x1="1.3113" y1="0.233904" x2="7.37793" y2="3.37324" gradientUnits="userSpaceOnUse">
<stop/>
<stop offset="1" stop-color="#464953"/>
</linearGradient>
<linearGradient id="paint1_linear_42_181" x1="9.3343" y1="2.87709" x2="14.3389" y2="6.06916" gradientUnits="userSpaceOnUse">
<stop/>
<stop offset="1" stop-color="#464953"/>
</linearGradient>
<linearGradient id="paint2_linear_42_181" x1="9.99661" y1="0.587215" x2="10.6063" y2="2.20293" gradientUnits="userSpaceOnUse">
<stop/>
<stop offset="1" stop-color="#464953"/>
</linearGradient>
</defs>
</svg>
