<svg width="19" height="14" viewBox="0 0 19 14" fill="none" xmlns="http://www.w3.org/2000/svg">
<path fill-rule="evenodd" clip-rule="evenodd" d="M0.134968 13.0207V0.75H5.80682C7.63098 0.75 9.10627 2.22528 9.10627 4.04944C9.10627 5.20574 8.74741 5.92345 7.44159 6.66109C9.00658 7.36882 9.43521 8.35567 9.43521 9.74123C9.43521 11.6053 7.78051 13.0307 5.91647 13.0307H0.125L0.134968 13.0207ZM2.53728 2.77353V5.72409H5.34829C5.34829 5.72409 6.71392 5.72409 6.71392 4.24881C6.71392 2.77353 5.34829 2.77353 5.34829 2.77353H2.53728ZM2.53728 10.9374V7.74761H5.54765C6.03609 7.74761 7.05283 7.99682 7.05283 9.502C7.05283 10.6184 6.04606 10.9175 5.54765 10.9274H2.53728V10.9374Z" fill="url(#paint0_linear_90_105)"/>
<path fill-rule="evenodd" clip-rule="evenodd" d="M14.5786 4.12939C12.8542 4.12939 10.2924 5.36544 10.2924 8.66488C10.2924 10.6685 11.3889 13.2502 14.6883 13.2502C17.3298 13.2502 18.546 11.3164 18.8151 10.3495H16.333C16.2034 10.7881 15.725 11.2765 14.6883 11.2765C13.1831 11.2765 12.6448 9.99064 12.5651 9.34272H18.8151V8.66488C18.8151 5.36544 16.3031 4.12939 14.5786 4.12939ZM14.5786 6.01337C13.1731 6.01337 12.6548 7.17964 12.5651 7.75779H16.333C16.333 7.17964 15.9841 6.01337 14.5687 6.01337H14.5786Z" fill="url(#paint1_linear_90_105)"/>
<path d="M11.5783 1.44775V2.97287H17.4994V1.44775H11.5783Z" fill="url(#paint2_linear_90_105)"/>
<defs>
<linearGradient id="paint0_linear_90_105" x1="1.76412" y1="1.04238" x2="9.34741" y2="4.96655" gradientUnits="userSpaceOnUse">
<stop stop-color="#ABB2CE"/>
<stop offset="1" stop-color="white"/>
</linearGradient>
<linearGradient id="paint1_linear_90_105" x1="11.7928" y1="4.34654" x2="18.0487" y2="8.33663" gradientUnits="userSpaceOnUse">
<stop stop-color="#ABB2CE"/>
<stop offset="1" stop-color="white"/>
</linearGradient>
<linearGradient id="paint2_linear_90_105" x1="12.6207" y1="1.48406" x2="13.3829" y2="3.50371" gradientUnits="userSpaceOnUse">
<stop stop-color="#ABB2CE"/>
<stop offset="1" stop-color="white"/>
</linearGradient>
</defs>
</svg>
