<svg width="21" height="18" viewBox="0 0 21 18" fill="none" xmlns="http://www.w3.org/2000/svg">
<path d="M16.5992 3.6489C15.4774 3.15667 14.2745 2.79402 13.0167 2.58632C12.9938 2.58231 12.971 2.59233 12.9592 2.61237C12.8044 2.8755 12.6331 3.21878 12.5131 3.4886C11.1603 3.29493 9.81448 3.29493 8.48945 3.4886C8.36942 3.21279 8.19183 2.8755 8.03643 2.61237C8.02463 2.593 8.00175 2.58298 7.97885 2.58632C6.72181 2.79336 5.51889 3.15601 4.39643 3.6489C4.38671 3.65291 4.37839 3.65959 4.37286 3.66827C2.09117 6.92813 1.46612 10.1079 1.77274 13.2482C1.77413 13.2635 1.78315 13.2782 1.79564 13.2876C3.30103 14.3448 4.75926 14.9866 6.19042 15.4121C6.21332 15.4187 6.23759 15.4107 6.25217 15.3927C6.59071 14.9506 6.89248 14.4844 7.15123 13.9942C7.1665 13.9655 7.15192 13.9314 7.12071 13.92C6.64204 13.7464 6.18625 13.5347 5.74781 13.2943C5.71313 13.2749 5.71036 13.2275 5.74226 13.2048C5.83453 13.1386 5.92681 13.0698 6.01491 13.0004C6.03085 12.9877 6.05306 12.985 6.0718 12.993C8.95215 14.2506 12.0705 14.2506 14.9168 12.993C14.9356 12.9844 14.9578 12.987 14.9744 12.9997C15.0626 13.0692 15.1548 13.1386 15.2478 13.2048C15.2797 13.2275 15.2776 13.2749 15.2429 13.2943C14.8045 13.5394 14.3487 13.7464 13.8693 13.9194C13.8381 13.9307 13.8242 13.9655 13.8395 13.9942C14.1038 14.4837 14.4056 14.9499 14.7379 15.392C14.7518 15.4107 14.7767 15.4187 14.7996 15.4121C16.2377 14.9866 17.6959 14.3448 19.2013 13.2876C19.2145 13.2782 19.2228 13.2642 19.2242 13.2488C19.5912 9.6183 18.6096 6.46463 16.622 3.66893C16.6172 3.65959 16.6089 3.65291 16.5992 3.6489ZM7.58136 11.3361C6.71418 11.3361 5.99964 10.5747 5.99964 9.63968C5.99964 8.70466 6.70032 7.9433 7.58136 7.9433C8.46932 7.9433 9.17694 8.71134 9.16306 9.63968C9.16306 10.5747 8.46238 11.3361 7.58136 11.3361ZM13.4295 11.3361C12.5623 11.3361 11.8478 10.5747 11.8478 9.63968C11.8478 8.70466 12.5485 7.9433 13.4295 7.9433C14.3175 7.9433 15.0251 8.71134 15.0112 9.63968C15.0112 10.5747 14.3175 11.3361 13.4295 11.3361Z" fill="url(#paint0_linear_90_112)"/>
<defs>
<linearGradient id="paint0_linear_90_112" x1="4.79861" y1="2.89088" x2="14.4817" y2="11.9584" gradientUnits="userSpaceOnUse">
<stop stop-color="#ABB2CE"/>
<stop offset="1" stop-color="white"/>
</linearGradient>
</defs>
</svg>
