<svg width="17" height="14" viewBox="0 0 17 14" fill="none" xmlns="http://www.w3.org/2000/svg">
<path d="M13.3793 2.71917C12.4819 2.32539 11.5196 2.03527 10.5134 1.86911C10.4951 1.8659 10.4768 1.87391 10.4673 1.88994C10.3436 2.10045 10.2065 2.37508 10.1105 2.59093C9.02826 2.43599 7.9516 2.43599 6.89157 2.59093C6.79555 2.37028 6.65348 2.10045 6.52916 1.88994C6.51972 1.87445 6.50142 1.86643 6.48309 1.86911C5.47746 2.03474 4.51512 2.32486 3.61716 2.71917C3.60938 2.72237 3.60272 2.72772 3.5983 2.73466C1.77295 5.34255 1.2729 7.88634 1.51821 10.3986C1.51932 10.4109 1.52653 10.4226 1.53652 10.4301C2.74084 11.2759 3.90742 11.7894 5.05235 12.1297C5.07067 12.135 5.09008 12.1286 5.10174 12.1142C5.37258 11.7605 5.614 11.3876 5.82099 10.9954C5.83321 10.9724 5.82155 10.9452 5.79658 10.9361C5.41365 10.7972 5.04901 10.6278 4.69826 10.4355C4.67052 10.42 4.6683 10.382 4.69382 10.3638C4.76763 10.311 4.84146 10.2559 4.91194 10.2004C4.92469 10.1902 4.94246 10.1881 4.95745 10.1945C7.26174 11.2006 9.75639 11.2006 12.0335 10.1945C12.0485 10.1875 12.0662 10.1897 12.0796 10.1998C12.1501 10.2554 12.2239 10.311 12.2982 10.3638C12.3238 10.382 12.3221 10.42 12.2943 10.4355C11.9436 10.6315 11.579 10.7972 11.1955 10.9356C11.1705 10.9446 11.1594 10.9724 11.1716 10.9954C11.3831 11.387 11.6245 11.76 11.8903 12.1137C11.9014 12.1286 11.9214 12.135 11.9397 12.1297C13.0902 11.7894 14.2568 11.2759 15.4611 10.4301C15.4716 10.4226 15.4783 10.4114 15.4794 10.3991C15.773 7.49469 14.9877 4.97176 13.3976 2.73519C13.3938 2.72772 13.3871 2.72237 13.3793 2.71917ZM6.1651 8.86889C5.47135 8.86889 4.89973 8.25981 4.89973 7.51179C4.89973 6.76377 5.46027 6.15469 6.1651 6.15469C6.87547 6.15469 7.44156 6.76912 7.43046 7.51179C7.43046 8.25981 6.86992 8.86889 6.1651 8.86889ZM10.8436 8.86889C10.1499 8.86889 9.57825 8.25981 9.57825 7.51179C9.57825 6.76377 10.1388 6.15469 10.8436 6.15469C11.554 6.15469 12.1201 6.76912 12.109 7.51179C12.109 8.25981 11.554 8.86889 10.8436 8.86889Z" fill="url(#paint0_linear_42_188)"/>
<defs>
<linearGradient id="paint0_linear_42_188" x1="3.9389" y1="2.11275" x2="11.6854" y2="9.36678" gradientUnits="userSpaceOnUse">
<stop/>
<stop offset="1" stop-color="#464953"/>
</linearGradient>
</defs>
</svg>
