<svg viewBox="0 0 4454 4454" fill="none" xmlns="http://www.w3.org/2000/svg">
<g filter="url(#filter0_ii_24_424)">
<path d="M1309.36 1902.63C1318.48 1907.89 1326.81 1913.88 1334.37 1920.54C1334.37 1920.54 1334.37 1920.54 1334.48 1920.6C1382.32 1967.66 1459.58 2125.1 1191.41 2589.58C1191.41 2589.58 1284.29 2310.75 1140.6 2221.51C1139.22 2220.56 1137.86 2219.71 1136.47 2218.9C1025.64 2153.88 767.485 2306.55 560.314 2454.73L-2.2693e-05 2430.13C391.984 2132.31 1011.27 1730.52 1309.36 1902.63Z" fill="url(#paint0_linear_24_424)"/>
</g>
<g filter="url(#filter1_ii_24_424)">
<path d="M1348.89 2646.21C1359.05 2643.49 1369.18 2641.84 1379.24 2641.19C1379.24 2641.19 1379.24 2641.19 1379.36 2641.16C1446.46 2640.61 1612.42 2697.3 1751.23 3215.36C1751.23 3215.36 1619.74 2952.53 1455.04 2991.03C1453.39 2991.34 1451.82 2991.69 1450.27 2992.11C1325.93 3024.5 1251.33 3314.99 1209.62 3566.27L796.03 3945.08C862.615 3457.31 1016.4 2735.3 1348.89 2646.21Z" fill="url(#paint1_linear_24_424)"/>
</g>
<g filter="url(#filter2_ii_24_424)">
<path d="M3144.06 2550.8C3134.94 2545.53 3126.62 2539.54 3119.05 2532.88C3119.05 2532.88 3119.05 2532.88 3118.94 2532.82C3071.1 2485.77 2993.84 2328.33 3262.01 1863.85C3262.01 1863.85 3169.14 2142.67 3312.83 2231.91C3314.21 2232.86 3315.57 2233.72 3316.95 2234.52C3427.79 2299.54 3685.94 2146.88 3893.11 1998.69L4453.42 2023.29C4061.44 2321.11 3442.16 2722.9 3144.06 2550.8Z" fill="url(#paint2_linear_24_424)"/>
</g>
<g filter="url(#filter3_ii_24_424)">
<path d="M2550.8 1309.36C2545.53 1318.48 2539.54 1326.81 2532.88 1334.37C2532.88 1334.37 2532.88 1334.37 2532.82 1334.48C2485.77 1382.32 2328.33 1459.58 1863.85 1191.41C1863.85 1191.41 2142.67 1284.29 2231.91 1140.6C2232.86 1139.22 2233.72 1137.86 2234.52 1136.47C2299.54 1025.64 2146.88 767.485 1998.69 560.314L2023.29 -5.58188e-05C2321.11 391.984 2722.9 1011.27 2550.8 1309.36Z" fill="url(#paint3_linear_24_424)"/>
</g>
<g filter="url(#filter4_ii_24_424)">
<path d="M1902.63 3144.06C1907.89 3134.94 1913.88 3126.62 1920.54 3119.05C1920.54 3119.05 1920.54 3119.05 1920.6 3118.94C1967.66 3071.1 2125.1 2993.84 2589.58 3262.01C2589.58 3262.01 2310.75 3169.14 2221.51 3312.83C2220.56 3314.21 2219.71 3315.56 2218.9 3316.95C2153.88 3427.79 2306.55 3685.94 2454.73 3893.11L2430.13 4453.42C2132.31 4061.44 1730.52 3442.16 1902.63 3144.06Z" fill="url(#paint4_linear_24_424)"/>
</g>
<g filter="url(#filter5_ii_24_424)">
<path d="M1807.21 1348.89C1809.94 1359.05 1811.59 1369.18 1812.23 1379.24C1812.23 1379.24 1812.23 1379.24 1812.26 1379.36C1812.82 1446.46 1756.12 1612.42 1238.06 1751.23C1238.06 1751.23 1500.89 1619.74 1462.39 1455.03C1462.08 1453.39 1461.73 1451.82 1461.31 1450.27C1428.92 1325.93 1138.43 1251.33 887.158 1209.62L508.348 796.029C996.112 862.614 1718.12 1016.4 1807.21 1348.89Z" fill="url(#paint5_linear_24_424)"/>
</g>
<g filter="url(#filter6_ii_24_424)">
<path d="M2646.21 3104.54C2643.49 3094.37 2641.84 3084.25 2641.19 3074.19C2641.19 3074.19 2641.19 3074.19 2641.16 3074.06C2640.61 3006.97 2697.3 2841.01 3215.36 2702.19C3215.36 2702.19 2952.53 2833.68 2991.03 2998.39C2991.34 3000.03 2991.69 3001.6 2992.11 3003.15C3024.5 3127.5 3314.99 3202.09 3566.27 3243.8L3945.08 3657.39C3457.31 3590.81 2735.3 3437.02 2646.21 3104.54Z" fill="url(#paint6_linear_24_424)"/>
</g>
<g filter="url(#filter7_ii_24_424)">
<path d="M3104.54 1807.21C3094.37 1809.94 3084.25 1811.59 3074.19 1812.23C3074.19 1812.23 3074.19 1812.23 3074.06 1812.26C3006.97 1812.82 2841.01 1756.12 2702.19 1238.06C2702.19 1238.06 2833.68 1500.89 2998.39 1462.39C3000.03 1462.08 3001.6 1461.73 3003.15 1461.32C3127.5 1428.92 3202.09 1138.43 3243.8 887.159L3657.39 508.348C3590.81 996.113 3437.02 1718.12 3104.54 1807.21Z" fill="url(#paint7_linear_24_424)"/>
</g>
<defs>
<filter id="filter0_ii_24_424" x="-49.2015" y="1812.06" width="1481.2" height="826.721" filterUnits="userSpaceOnUse" color-interpolation-filters="sRGB">
<feFlood flood-opacity="0" result="BackgroundImageFix"/>
<feBlend mode="normal" in="SourceGraphic" in2="BackgroundImageFix" result="shape"/>
<feColorMatrix in="SourceAlpha" type="matrix" values="0 0 0 0 0 0 0 0 0 0 0 0 0 0 0 0 0 0 127 0" result="hardAlpha"/>
<feOffset dx="49.2015" dy="49.2015"/>
<feGaussianBlur stdDeviation="88.5628"/>
<feComposite in2="hardAlpha" operator="arithmetic" k2="-1" k3="1"/>
<feColorMatrix type="matrix" values="0 0 0 0 0.913725 0 0 0 0 0.92549 0 0 0 0 0.976471 0 0 0 0.5 0"/>
<feBlend mode="normal" in2="shape" result="effect1_innerShadow_24_424"/>
<feColorMatrix in="SourceAlpha" type="matrix" values="0 0 0 0 0 0 0 0 0 0 0 0 0 0 0 0 0 0 127 0" result="hardAlpha"/>
<feOffset dx="-49.2015" dy="-49.2015"/>
<feGaussianBlur stdDeviation="88.5628"/>
<feComposite in2="hardAlpha" operator="arithmetic" k2="-1" k3="1"/>
<feColorMatrix type="matrix" values="0 0 0 0 1 0 0 0 0 1 0 0 0 0 1 0 0 0 0.5 0"/>
<feBlend mode="normal" in2="effect1_innerShadow_24_424" result="effect2_innerShadow_24_424"/>
</filter>
<filter id="filter1_ii_24_424" x="746.829" y="2591.95" width="1053.6" height="1402.32" filterUnits="userSpaceOnUse" color-interpolation-filters="sRGB">
<feFlood flood-opacity="0" result="BackgroundImageFix"/>
<feBlend mode="normal" in="SourceGraphic" in2="BackgroundImageFix" result="shape"/>
<feColorMatrix in="SourceAlpha" type="matrix" values="0 0 0 0 0 0 0 0 0 0 0 0 0 0 0 0 0 0 127 0" result="hardAlpha"/>
<feOffset dx="49.2015" dy="49.2015"/>
<feGaussianBlur stdDeviation="88.5628"/>
<feComposite in2="hardAlpha" operator="arithmetic" k2="-1" k3="1"/>
<feColorMatrix type="matrix" values="0 0 0 0 0.913725 0 0 0 0 0.92549 0 0 0 0 0.976471 0 0 0 0.5 0"/>
<feBlend mode="normal" in2="shape" result="effect1_innerShadow_24_424"/>
<feColorMatrix in="SourceAlpha" type="matrix" values="0 0 0 0 0 0 0 0 0 0 0 0 0 0 0 0 0 0 127 0" result="hardAlpha"/>
<feOffset dx="-49.2015" dy="-49.2015"/>
<feGaussianBlur stdDeviation="88.5628"/>
<feComposite in2="hardAlpha" operator="arithmetic" k2="-1" k3="1"/>
<feColorMatrix type="matrix" values="0 0 0 0 1 0 0 0 0 1 0 0 0 0 1 0 0 0 0.5 0"/>
<feBlend mode="normal" in2="effect1_innerShadow_24_424" result="effect2_innerShadow_24_424"/>
</filter>
<filter id="filter2_ii_24_424" x="3021.43" y="1814.64" width="1481.2" height="826.721" filterUnits="userSpaceOnUse" color-interpolation-filters="sRGB">
<feFlood flood-opacity="0" result="BackgroundImageFix"/>
<feBlend mode="normal" in="SourceGraphic" in2="BackgroundImageFix" result="shape"/>
<feColorMatrix in="SourceAlpha" type="matrix" values="0 0 0 0 0 0 0 0 0 0 0 0 0 0 0 0 0 0 127 0" result="hardAlpha"/>
<feOffset dx="49.2015" dy="49.2015"/>
<feGaussianBlur stdDeviation="88.5628"/>
<feComposite in2="hardAlpha" operator="arithmetic" k2="-1" k3="1"/>
<feColorMatrix type="matrix" values="0 0 0 0 0.913725 0 0 0 0 0.92549 0 0 0 0 0.976471 0 0 0 0.5 0"/>
<feBlend mode="normal" in2="shape" result="effect1_innerShadow_24_424"/>
<feColorMatrix in="SourceAlpha" type="matrix" values="0 0 0 0 0 0 0 0 0 0 0 0 0 0 0 0 0 0 127 0" result="hardAlpha"/>
<feOffset dx="-49.2015" dy="-49.2015"/>
<feGaussianBlur stdDeviation="88.5628"/>
<feComposite in2="hardAlpha" operator="arithmetic" k2="-1" k3="1"/>
<feColorMatrix type="matrix" values="0 0 0 0 1 0 0 0 0 1 0 0 0 0 1 0 0 0 0.5 0"/>
<feBlend mode="normal" in2="effect1_innerShadow_24_424" result="effect2_innerShadow_24_424"/>
</filter>
<filter id="filter3_ii_24_424" x="1814.64" y="-49.2015" width="826.721" height="1481.2" filterUnits="userSpaceOnUse" color-interpolation-filters="sRGB">
<feFlood flood-opacity="0" result="BackgroundImageFix"/>
<feBlend mode="normal" in="SourceGraphic" in2="BackgroundImageFix" result="shape"/>
<feColorMatrix in="SourceAlpha" type="matrix" values="0 0 0 0 0 0 0 0 0 0 0 0 0 0 0 0 0 0 127 0" result="hardAlpha"/>
<feOffset dx="49.2015" dy="49.2015"/>
<feGaussianBlur stdDeviation="88.5628"/>
<feComposite in2="hardAlpha" operator="arithmetic" k2="-1" k3="1"/>
<feColorMatrix type="matrix" values="0 0 0 0 0.913725 0 0 0 0 0.92549 0 0 0 0 0.976471 0 0 0 0.5 0"/>
<feBlend mode="normal" in2="shape" result="effect1_innerShadow_24_424"/>
<feColorMatrix in="SourceAlpha" type="matrix" values="0 0 0 0 0 0 0 0 0 0 0 0 0 0 0 0 0 0 127 0" result="hardAlpha"/>
<feOffset dx="-49.2015" dy="-49.2015"/>
<feGaussianBlur stdDeviation="88.5628"/>
<feComposite in2="hardAlpha" operator="arithmetic" k2="-1" k3="1"/>
<feColorMatrix type="matrix" values="0 0 0 0 1 0 0 0 0 1 0 0 0 0 1 0 0 0 0.5 0"/>
<feBlend mode="normal" in2="effect1_innerShadow_24_424" result="effect2_innerShadow_24_424"/>
</filter>
<filter id="filter4_ii_24_424" x="1812.06" y="3021.43" width="826.721" height="1481.2" filterUnits="userSpaceOnUse" color-interpolation-filters="sRGB">
<feFlood flood-opacity="0" result="BackgroundImageFix"/>
<feBlend mode="normal" in="SourceGraphic" in2="BackgroundImageFix" result="shape"/>
<feColorMatrix in="SourceAlpha" type="matrix" values="0 0 0 0 0 0 0 0 0 0 0 0 0 0 0 0 0 0 127 0" result="hardAlpha"/>
<feOffset dx="49.2015" dy="49.2015"/>
<feGaussianBlur stdDeviation="88.5628"/>
<feComposite in2="hardAlpha" operator="arithmetic" k2="-1" k3="1"/>
<feColorMatrix type="matrix" values="0 0 0 0 0.913725 0 0 0 0 0.92549 0 0 0 0 0.976471 0 0 0 0.5 0"/>
<feBlend mode="normal" in2="shape" result="effect1_innerShadow_24_424"/>
<feColorMatrix in="SourceAlpha" type="matrix" values="0 0 0 0 0 0 0 0 0 0 0 0 0 0 0 0 0 0 127 0" result="hardAlpha"/>
<feOffset dx="-49.2015" dy="-49.2015"/>
<feGaussianBlur stdDeviation="88.5628"/>
<feComposite in2="hardAlpha" operator="arithmetic" k2="-1" k3="1"/>
<feColorMatrix type="matrix" values="0 0 0 0 1 0 0 0 0 1 0 0 0 0 1 0 0 0 0.5 0"/>
<feBlend mode="normal" in2="effect1_innerShadow_24_424" result="effect2_innerShadow_24_424"/>
</filter>
<filter id="filter5_ii_24_424" x="459.146" y="746.828" width="1402.32" height="1053.6" filterUnits="userSpaceOnUse" color-interpolation-filters="sRGB">
<feFlood flood-opacity="0" result="BackgroundImageFix"/>
<feBlend mode="normal" in="SourceGraphic" in2="BackgroundImageFix" result="shape"/>
<feColorMatrix in="SourceAlpha" type="matrix" values="0 0 0 0 0 0 0 0 0 0 0 0 0 0 0 0 0 0 127 0" result="hardAlpha"/>
<feOffset dx="49.2015" dy="49.2015"/>
<feGaussianBlur stdDeviation="88.5628"/>
<feComposite in2="hardAlpha" operator="arithmetic" k2="-1" k3="1"/>
<feColorMatrix type="matrix" values="0 0 0 0 0.913725 0 0 0 0 0.92549 0 0 0 0 0.976471 0 0 0 0.5 0"/>
<feBlend mode="normal" in2="shape" result="effect1_innerShadow_24_424"/>
<feColorMatrix in="SourceAlpha" type="matrix" values="0 0 0 0 0 0 0 0 0 0 0 0 0 0 0 0 0 0 127 0" result="hardAlpha"/>
<feOffset dx="-49.2015" dy="-49.2015"/>
<feGaussianBlur stdDeviation="88.5628"/>
<feComposite in2="hardAlpha" operator="arithmetic" k2="-1" k3="1"/>
<feColorMatrix type="matrix" values="0 0 0 0 1 0 0 0 0 1 0 0 0 0 1 0 0 0 0.5 0"/>
<feBlend mode="normal" in2="effect1_innerShadow_24_424" result="effect2_innerShadow_24_424"/>
</filter>
<filter id="filter6_ii_24_424" x="2591.96" y="2652.99" width="1402.32" height="1053.6" filterUnits="userSpaceOnUse" color-interpolation-filters="sRGB">
<feFlood flood-opacity="0" result="BackgroundImageFix"/>
<feBlend mode="normal" in="SourceGraphic" in2="BackgroundImageFix" result="shape"/>
<feColorMatrix in="SourceAlpha" type="matrix" values="0 0 0 0 0 0 0 0 0 0 0 0 0 0 0 0 0 0 127 0" result="hardAlpha"/>
<feOffset dx="49.2015" dy="49.2015"/>
<feGaussianBlur stdDeviation="88.5628"/>
<feComposite in2="hardAlpha" operator="arithmetic" k2="-1" k3="1"/>
<feColorMatrix type="matrix" values="0 0 0 0 0.913725 0 0 0 0 0.92549 0 0 0 0 0.976471 0 0 0 0.5 0"/>
<feBlend mode="normal" in2="shape" result="effect1_innerShadow_24_424"/>
<feColorMatrix in="SourceAlpha" type="matrix" values="0 0 0 0 0 0 0 0 0 0 0 0 0 0 0 0 0 0 127 0" result="hardAlpha"/>
<feOffset dx="-49.2015" dy="-49.2015"/>
<feGaussianBlur stdDeviation="88.5628"/>
<feComposite in2="hardAlpha" operator="arithmetic" k2="-1" k3="1"/>
<feColorMatrix type="matrix" values="0 0 0 0 1 0 0 0 0 1 0 0 0 0 1 0 0 0 0.5 0"/>
<feBlend mode="normal" in2="effect1_innerShadow_24_424" result="effect2_innerShadow_24_424"/>
</filter>
<filter id="filter7_ii_24_424" x="2652.99" y="459.147" width="1053.6" height="1402.32" filterUnits="userSpaceOnUse" color-interpolation-filters="sRGB">
<feFlood flood-opacity="0" result="BackgroundImageFix"/>
<feBlend mode="normal" in="SourceGraphic" in2="BackgroundImageFix" result="shape"/>
<feColorMatrix in="SourceAlpha" type="matrix" values="0 0 0 0 0 0 0 0 0 0 0 0 0 0 0 0 0 0 127 0" result="hardAlpha"/>
<feOffset dx="49.2015" dy="49.2015"/>
<feGaussianBlur stdDeviation="88.5628"/>
<feComposite in2="hardAlpha" operator="arithmetic" k2="-1" k3="1"/>
<feColorMatrix type="matrix" values="0 0 0 0 0.913725 0 0 0 0 0.92549 0 0 0 0 0.976471 0 0 0 0.5 0"/>
<feBlend mode="normal" in2="shape" result="effect1_innerShadow_24_424"/>
<feColorMatrix in="SourceAlpha" type="matrix" values="0 0 0 0 0 0 0 0 0 0 0 0 0 0 0 0 0 0 127 0" result="hardAlpha"/>
<feOffset dx="-49.2015" dy="-49.2015"/>
<feGaussianBlur stdDeviation="88.5628"/>
<feComposite in2="hardAlpha" operator="arithmetic" k2="-1" k3="1"/>
<feColorMatrix type="matrix" values="0 0 0 0 1 0 0 0 0 1 0 0 0 0 1 0 0 0 0.5 0"/>
<feBlend mode="normal" in2="effect1_innerShadow_24_424" result="effect2_innerShadow_24_424"/>
</filter>
<linearGradient id="paint0_linear_24_424" x1="555.758" y1="1467.53" x2="12.4631" y2="2471.96" gradientUnits="userSpaceOnUse">
<stop offset="0.0001" stop-color="#E7EBF9"/>
<stop offset="1" stop-color="white"/>
</linearGradient>
<linearGradient id="paint1_linear_24_424" x1="508.349" y1="2871.43" x2="834.422" y2="3965.84" gradientUnits="userSpaceOnUse">
<stop offset="0.0001" stop-color="#E7EBF9"/>
<stop offset="1" stop-color="white"/>
</linearGradient>
<linearGradient id="paint2_linear_24_424" x1="3897.67" y1="2985.89" x2="4440.96" y2="1981.46" gradientUnits="userSpaceOnUse">
<stop offset="0.0001" stop-color="#E7EBF9"/>
<stop offset="1" stop-color="white"/>
</linearGradient>
<linearGradient id="paint3_linear_24_424" x1="2985.89" y1="555.758" x2="1981.46" y2="12.4631" gradientUnits="userSpaceOnUse">
<stop offset="0.0001" stop-color="#E7EBF9"/>
<stop offset="1" stop-color="white"/>
</linearGradient>
<linearGradient id="paint4_linear_24_424" x1="1467.53" y1="3897.67" x2="2471.96" y2="4440.96" gradientUnits="userSpaceOnUse">
<stop offset="0.0001" stop-color="#E7EBF9"/>
<stop offset="1" stop-color="white"/>
</linearGradient>
<linearGradient id="paint5_linear_24_424" x1="1581.99" y1="508.348" x2="487.582" y2="834.421" gradientUnits="userSpaceOnUse">
<stop offset="0.0001" stop-color="#E7EBF9"/>
<stop offset="1" stop-color="white"/>
</linearGradient>
<linearGradient id="paint6_linear_24_424" x1="2871.43" y1="3945.08" x2="3965.84" y2="3619" gradientUnits="userSpaceOnUse">
<stop offset="0.0001" stop-color="#E7EBF9"/>
<stop offset="1" stop-color="white"/>
</linearGradient>
<linearGradient id="paint7_linear_24_424" x1="3945.08" y1="1581.99" x2="3619" y2="487.583" gradientUnits="userSpaceOnUse">
<stop offset="0.0001" stop-color="#E7EBF9"/>
<stop offset="1" stop-color="white"/>
</linearGradient>
</defs>
</svg>
