<svg width="946" height="414" viewBox="0 0 946 414" fill="none" xmlns="http://www.w3.org/2000/svg">
<g filter="url(#filter0_i_31_64)">
<path d="M30.5348 44.5846H37.794V24.889C37.794 17.6346 40.9095 10.894 48.1687 8.30051V44.5909H64.5112V46.9213H48.1687V111.978C48.1687 121.826 54.6505 130.897 65.2886 130.897C71.2564 130.897 78.5155 127.784 82.1451 122.86C78.5155 131.154 68.3978 135.301 60.0981 135.301C44.0188 135.301 37.794 122.603 37.794 108.345V46.915H30.5348V44.5846Z" fill="#5A5E6B"/>
<path d="M83.963 135.301C90.7082 133.228 92.5198 127.264 92.5198 120.529V67.1306C92.5198 63.5034 91.7425 55.986 86.552 55.986L102.895 44.5846V120.529C102.895 127.27 104.969 133.228 111.715 135.301H83.963ZM89.6676 22.8091C89.6676 18.4052 92.7768 15.5548 97.19 15.5548C101.603 15.5548 104.449 18.4052 104.449 22.8091C104.449 27.2131 101.597 30.0634 97.19 30.0634C92.7831 30.0634 89.6676 27.2131 89.6676 22.8091Z" fill="#5A5E6B"/>
<path d="M123.13 135.301C130.389 132.708 132.207 126.75 132.207 119.489V68.6842C132.207 64.5371 131.43 56.7628 125.725 56.7628L142.325 44.5846L142.582 119.489C142.582 126.744 144.657 132.708 151.916 135.301H123.124H123.13ZM148.286 58.5795C155.545 50.0285 166.183 44.0646 177.335 44.0646C195.753 44.0646 203.269 59.0995 203.269 75.6879V119.489C203.269 126.744 205.344 132.964 212.61 135.301H183.56C190.826 132.971 192.901 126.487 192.901 119.489V73.3513C192.901 60.6531 187.716 48.4686 173.192 48.4686C164.115 48.4686 155.295 53.1357 148.293 58.5795H148.286ZM205.607 58.5795C212.61 50.0285 223.505 44.0646 234.657 44.0646C252.811 44.0646 260.333 59.0995 260.333 75.6879V119.489C260.333 126.744 262.665 132.964 269.931 135.301H240.881C248.141 132.971 249.958 126.487 249.958 119.489V73.3513C249.958 60.6531 245.031 48.4686 230.507 48.4686C221.43 48.4686 212.61 53.1357 205.607 58.5795Z" fill="#5A5E6B"/>
<path d="M319.98 44.3214C345.136 44.3214 365.629 64.8002 365.629 89.9397C365.629 115.079 345.4 135.558 320.237 135.558C295.074 135.558 274.331 115.079 274.331 89.9397C274.331 64.8002 294.824 44.3214 319.98 44.3214ZM284.963 86.5694C284.963 107.562 298.71 133.221 322.569 133.221C343.575 133.221 354.213 112.229 354.213 93.5668C354.213 72.3113 340.729 46.915 316.864 46.915C295.858 46.915 284.963 67.9074 284.963 86.5694Z" fill="#5A5E6B"/>
<path d="M399.856 119.489V24.3627C399.856 19.9525 399.079 12.1782 393.374 12.1782L409.974 1.52588e-05L410.231 119.489C410.231 126.744 412.306 132.708 419.571 135.301H390.779C398.044 132.708 399.856 126.75 399.856 119.489Z" fill="#5A5E6B"/>
<path d="M471.187 44.8414C493.492 44.8414 504.387 64.8002 504.387 84.7589H436.434C436.434 106.528 445.511 129.08 470.93 129.08C481.825 129.08 498.939 125.453 504.387 114.822C498.939 128.56 483.637 136.592 469.37 136.592C444.213 136.592 425.539 116.896 425.539 92.0132C425.539 63.7603 442.395 44.8414 471.187 44.8414ZM436.691 82.1654H483.637C491.417 82.1654 495.309 76.2016 495.309 69.2041C495.309 54.4324 482.082 46.395 468.855 46.395C450.958 46.395 436.691 65.057 436.691 82.1654Z" fill="#5A5E6B"/>
<path d="M658.183 47.9486C652.993 47.9486 647.551 49.7653 642.361 53.1294C621.611 68.4211 608.384 109.115 583.485 126.737C576.226 132.181 567.926 135.552 558.065 135.552C532.909 135.552 512.16 115.336 512.16 89.9334C512.16 64.5308 532.652 44.3152 557.808 44.3152C582.965 44.3152 603.457 64.7939 603.457 89.9334C603.457 92.527 603.2 95.3773 602.937 97.9708C598.53 104.711 591.264 113.263 585.04 118.963C589.71 111.446 592.042 102.375 592.042 93.5606C592.042 72.3051 578.558 46.9087 554.693 46.9087C533.686 46.9087 522.791 67.9011 522.791 86.5631C522.791 106.779 535.498 131.148 557.288 132.958C586.594 134.255 602.417 104.705 618.502 79.3088V68.6842C618.502 64.5371 617.725 56.7628 612.02 56.7628L628.62 44.5846V64.8002C636.662 54.1756 645.476 46.395 656.628 44.8414C658.96 44.3215 661.299 44.0646 663.63 44.0646C682.048 44.0646 689.564 59.0995 689.564 75.6879V119.489C689.564 126.744 691.639 132.964 698.905 135.301H669.855C677.115 132.971 679.196 126.487 679.196 119.489V73.3513C679.196 56.506 669.598 47.9486 658.189 47.9486H658.183ZM609.425 135.295C616.684 132.701 618.502 126.744 618.502 119.483V88.8998L628.62 73.865L628.877 119.483C628.877 126.737 630.952 132.701 638.217 135.295H609.425Z" fill="#5A5E6B"/>
<path d="M0.106537 251.564C7.3657 248.971 9.18363 243.013 9.18363 235.753V140.632C9.18363 136.222 8.40631 128.448 2.70178 128.448L19.3013 116.263L19.5583 235.753C19.5583 243.007 21.6333 248.971 28.8924 251.564H0.106537ZM53.5347 175.619C55.3527 173.803 57.4276 169.656 57.4276 167.325C57.4276 163.955 54.8324 161.881 51.9801 160.848H75.0615C70.3913 162.664 66.7617 164.738 63.1321 167.845L31.751 196.875L71.4319 242.23C75.5818 246.897 80.252 249.484 86.2135 251.564H65.9844L23.4512 202.576L53.5347 175.619Z" fill="#5A5E6B"/>
<path d="M96.5882 236.793V183.4C96.5882 179.51 96.0679 172.512 90.6204 172.512L106.7 160.848V236.793C106.7 243.013 108.775 249.234 115.256 251.564H87.7618C94.764 249.491 96.5819 243.527 96.5819 236.793H96.5882ZM114.485 173.289C119.67 167.845 134.978 162.921 142.237 162.921C147.684 162.921 155.464 164.995 155.464 171.992C155.464 175.363 153.389 179.247 149.496 179.247C140.939 179.247 144.312 167.845 131.342 167.845C126.158 167.845 118.635 170.176 114.485 173.289ZM182.438 187.804C182.958 186.507 183.993 184.434 183.993 183.137C183.993 167.845 173.361 162.658 159.614 162.658C162.466 161.105 166.096 160.585 169.211 160.585C187.365 160.585 194.631 171.729 194.631 188.838V234.976C194.631 240.42 196.449 246.377 202.931 246.377C205.526 246.377 208.121 245.601 210.196 244.047C208.378 248.714 202.417 252.598 197.226 252.598C186.331 252.598 184.256 244.047 184.256 234.976V188.838C175.179 207.5 143.535 204.129 143.535 229.532C143.535 240.677 151.057 248.194 162.466 248.194C169.468 248.194 176.47 245.081 181.918 240.94C175.693 248.714 166.096 252.604 156.498 252.604C143.271 252.604 131.079 244.567 131.079 230.572C131.079 203.873 171.28 208.283 182.432 187.804H182.438Z" fill="#5A5E6B"/>
<path d="M227.046 160.848V222.791C227.046 235.489 232.231 247.674 246.755 247.674C255.832 247.674 264.652 243.007 271.654 237.563C264.652 246.114 253.757 252.078 242.862 252.078C224.445 252.078 216.929 236.786 216.929 220.455V183.131C216.929 178.727 215.631 174.06 210.447 173.803L227.046 160.841V160.848ZM288.517 160.848V227.458C288.517 231.605 289.558 239.38 294.999 239.38L278.4 251.564V183.137C278.4 178.733 277.102 174.066 271.918 173.809L288.517 160.848Z" fill="#5A5E6B"/>
<path d="M337.532 249.748C347.907 249.748 364.507 247.417 364.507 233.679C364.507 210.613 306.408 215.794 306.408 185.211C306.408 168.365 320.933 159.808 336.235 159.808C343.237 159.808 360.357 163.178 366.839 166.029V183.137C362.689 170.176 348.684 161.368 335.457 161.368C326.117 161.368 312.89 166.549 312.89 177.436C312.89 204.136 371.245 197.652 371.245 227.202C371.245 245.864 355.166 252.604 339.081 252.604C328.449 252.604 315.222 250.011 305.104 246.904V225.391C310.288 239.129 322.224 249.754 337.526 249.754L337.532 249.748Z" fill="#5A5E6B"/>
<path d="M429.35 161.105C451.654 161.105 462.549 181.063 462.549 201.022H394.596C394.596 222.791 403.673 245.344 429.093 245.344C439.988 245.344 457.102 241.716 462.549 231.086C457.102 244.824 441.8 252.855 427.532 252.855C402.376 252.855 383.701 233.159 383.701 208.276C383.701 180.023 400.558 161.105 429.35 161.105ZM394.853 198.429H441.8C449.579 198.429 453.472 192.465 453.472 185.467C453.472 170.696 440.245 162.658 427.018 162.658C409.121 162.658 394.853 181.32 394.853 198.429Z" fill="#5A5E6B"/>
</g>
<g filter="url(#filter1_i_31_64)">
<path d="M915.465 369.415L908.206 369.415L908.206 389.111C908.206 396.365 905.09 403.106 897.831 405.7L897.831 369.409L881.489 369.409L881.489 367.079L897.831 367.079L897.831 302.022C897.831 292.174 891.349 283.103 880.711 283.103C874.744 283.103 867.484 286.216 863.855 291.14C867.484 282.846 877.602 278.699 885.902 278.699C901.981 278.699 908.206 291.397 908.206 305.655L908.206 367.085L915.465 367.085L915.465 369.415Z" fill="#5A5E6B"/>
<path d="M862.037 278.699C855.292 280.772 853.48 286.736 853.48 293.471L853.48 346.869C853.48 350.497 854.257 358.014 859.448 358.014L843.105 369.415L843.105 293.471C843.105 286.73 841.03 280.772 834.285 278.699L862.037 278.699ZM856.332 391.191C856.332 395.595 853.223 398.445 848.81 398.445C844.397 398.445 841.551 395.595 841.551 391.191C841.551 386.787 844.403 383.937 848.81 383.937C853.217 383.937 856.332 386.787 856.332 391.191Z" fill="#5A5E6B"/>
<path d="M822.87 278.699C815.611 281.292 813.793 287.25 813.793 294.511L813.793 345.316C813.793 349.463 814.57 357.237 820.275 357.237L803.675 369.415L803.418 294.511C803.418 287.256 801.343 281.292 794.084 278.699L822.876 278.699L822.87 278.699ZM797.714 355.421C790.454 363.972 779.816 369.935 768.664 369.935C750.247 369.935 742.731 354.901 742.731 338.312L742.731 294.511C742.731 287.256 740.656 281.036 733.39 278.699L762.44 278.699C755.174 281.029 753.099 287.513 753.099 294.511L753.099 340.649C753.099 353.347 758.283 365.531 772.808 365.531C781.885 365.531 790.705 360.864 797.707 355.421L797.714 355.421ZM740.393 355.421C733.39 363.972 722.495 369.935 711.343 369.935C693.189 369.935 685.667 354.901 685.667 338.312L685.667 294.511C685.667 287.256 683.335 281.036 676.069 278.699L705.119 278.699C697.859 281.029 696.041 287.513 696.041 294.511L696.041 340.649C696.041 353.347 700.969 365.531 715.493 365.531C724.57 365.531 733.39 360.864 740.393 355.421Z" fill="#5A5E6B"/>
<path d="M626.02 369.679C600.864 369.679 580.371 349.2 580.371 324.06C580.371 298.921 600.6 278.442 625.763 278.442C650.926 278.442 671.669 298.921 671.669 324.06C671.669 349.2 651.176 369.679 626.02 369.679ZM661.037 327.431C661.037 306.438 647.29 280.779 623.431 280.779C602.424 280.779 591.786 301.771 591.786 320.433C591.786 341.689 605.27 367.085 629.135 367.085C650.142 367.085 661.037 346.093 661.037 327.431Z" fill="#5A5E6B"/>
<path d="M546.144 294.511L546.144 389.637C546.144 394.048 546.921 401.822 552.626 401.822L536.026 414L535.769 294.511C535.769 287.256 533.694 281.293 526.429 278.699L555.221 278.699C547.956 281.293 546.144 287.25 546.144 294.511Z" fill="#5A5E6B"/>
<path d="M474.812 369.159C452.508 369.159 441.613 349.2 441.613 329.241L509.566 329.241C509.566 307.472 500.489 284.92 475.069 284.92C464.174 284.92 447.061 288.547 441.613 299.178C447.061 285.44 462.363 277.409 476.63 277.409C501.787 277.409 520.461 297.104 520.461 321.987C520.461 350.24 503.605 369.159 474.812 369.159ZM509.309 331.835L462.363 331.835C454.583 331.835 450.69 337.798 450.69 344.796C450.69 359.568 463.917 367.605 477.144 367.605C495.042 367.605 509.309 348.943 509.309 331.835Z" fill="#5A5E6B"/>
<path d="M287.817 366.051C293.007 366.051 298.449 364.235 303.639 360.871C324.389 345.579 337.616 304.885 362.515 287.263C369.774 281.819 378.074 278.448 387.935 278.448C413.091 278.448 433.84 298.664 433.84 324.067C433.84 349.469 413.348 369.685 388.192 369.685C363.035 369.685 342.543 349.206 342.543 324.067C342.543 321.473 342.8 318.623 343.063 316.029C347.47 309.289 354.735 300.737 360.96 295.037C356.29 302.554 353.958 311.625 353.958 320.439C353.958 341.695 367.442 367.091 391.307 367.091C412.314 367.091 423.209 346.099 423.209 327.437C423.209 307.221 410.502 282.852 388.712 281.042C359.406 279.745 343.583 309.295 327.498 334.691L327.498 345.316C327.498 349.463 328.275 357.237 333.98 357.237L317.38 369.415L317.38 349.2C309.337 359.824 300.524 367.605 289.372 369.159C287.04 369.679 284.701 369.935 282.369 369.935C263.952 369.935 256.436 354.901 256.436 338.312L256.436 294.511C256.436 287.256 254.361 281.036 247.095 278.699L276.145 278.699C268.885 281.029 266.804 287.513 266.804 294.511L266.804 340.649C266.804 357.494 276.402 366.051 287.811 366.051L287.817 366.051ZM336.575 278.705C329.316 281.299 327.498 287.256 327.498 294.517L327.498 325.1L317.38 340.135L317.123 294.517C317.123 287.263 315.048 281.299 307.783 278.705L336.575 278.705Z" fill="#5A5E6B"/>
<path d="M945.893 162.436C938.634 165.029 936.816 170.987 936.816 178.247L936.816 273.368C936.816 277.778 937.594 285.552 943.298 285.552L926.699 297.737L926.442 178.247C926.442 170.993 924.367 165.029 917.108 162.436L945.893 162.436ZM892.465 238.381C890.647 240.197 888.572 244.344 888.572 246.675C888.572 250.045 891.168 252.119 894.02 253.152L870.938 253.152C875.609 251.336 879.238 249.262 882.868 246.155L914.249 217.125L874.568 171.77C870.418 167.103 865.748 164.516 859.786 162.436L880.016 162.436L922.549 211.424L892.465 238.381Z" fill="#5A5E6B"/>
<path d="M849.412 177.207L849.412 230.6C849.412 234.49 849.932 241.488 855.38 241.488L839.3 253.152L839.3 177.207C839.3 170.987 837.225 164.766 830.743 162.436L858.238 162.436C851.236 164.509 849.418 170.473 849.418 177.207L849.412 177.207ZM831.515 240.711C826.33 246.155 811.022 251.079 803.763 251.079C798.315 251.079 790.536 249.005 790.536 242.008C790.536 238.637 792.611 234.753 796.504 234.753C805.061 234.753 801.688 246.155 814.658 246.155C819.842 246.155 827.365 243.824 831.515 240.711ZM763.562 226.196C763.041 227.493 762.007 229.566 762.007 230.863C762.007 246.155 772.639 251.342 786.386 251.342C783.534 252.895 779.904 253.415 776.789 253.415C758.635 253.415 751.369 242.271 751.369 225.162L751.369 179.024C751.369 173.58 749.551 167.623 743.069 167.623C740.474 167.623 737.879 168.4 735.804 169.953C737.622 165.286 743.583 161.402 748.774 161.402C759.669 161.402 761.744 169.953 761.744 179.024L761.744 225.162C770.821 206.5 802.465 209.871 802.465 184.468C802.465 173.323 794.943 165.806 783.534 165.806C776.532 165.806 769.53 168.92 764.082 173.06C770.307 165.286 779.904 161.396 789.502 161.396C802.729 161.396 814.921 169.433 814.921 183.428C814.921 210.128 774.72 205.717 763.568 226.196L763.562 226.196Z" fill="#5A5E6B"/>
<path d="M718.954 253.152L718.954 191.209C718.954 178.511 713.769 166.326 699.245 166.326C690.168 166.326 681.348 170.993 674.345 176.437C681.348 167.886 692.243 161.922 703.138 161.922C721.555 161.922 729.071 177.214 729.071 193.545L729.071 230.869C729.071 235.273 730.369 239.94 735.553 240.197L718.954 253.159L718.954 253.152ZM657.483 253.152L657.483 186.542C657.483 182.395 656.442 174.62 651.001 174.62L667.6 162.436L667.6 230.863C667.6 235.267 668.898 239.934 674.082 240.191L657.483 253.152Z" fill="#5A5E6B"/>
<path d="M608.468 164.252C598.093 164.252 581.493 166.583 581.493 180.321C581.493 203.387 639.592 198.206 639.592 228.79C639.592 245.635 625.067 254.192 609.765 254.192C602.763 254.192 585.643 250.822 579.161 247.972L579.161 230.863C583.311 243.824 597.316 252.632 610.543 252.632C619.883 252.632 633.11 247.452 633.11 236.564C633.11 209.864 574.755 216.348 574.755 186.798C574.755 168.136 590.834 161.396 606.919 161.396C617.551 161.396 630.778 163.989 640.896 167.097L640.896 188.609C635.711 174.871 623.776 164.246 608.474 164.246L608.468 164.252Z" fill="#5A5E6B"/>
<path d="M516.65 252.895C494.346 252.895 483.451 232.937 483.451 212.978L551.404 212.978C551.404 191.209 542.326 168.656 516.907 168.656C506.012 168.656 488.898 172.284 483.451 182.914C488.898 169.176 504.2 161.145 518.468 161.145C543.624 161.145 562.299 180.841 562.299 205.724C562.299 233.977 545.442 252.895 516.65 252.895ZM551.146 215.571L504.2 215.571C496.421 215.571 492.528 221.535 492.528 228.533C492.528 243.304 505.755 251.342 518.982 251.342C536.879 251.342 551.146 232.68 551.146 215.571Z" fill="#5A5E6B"/>
</g>
<defs>
<filter id="filter0_i_31_64" x="0.106537" y="1.52588e-05" width="710.846" height="264.903" filterUnits="userSpaceOnUse" color-interpolation-filters="sRGB">
<feFlood flood-opacity="0" result="BackgroundImageFix"/>
<feBlend mode="normal" in="SourceGraphic" in2="BackgroundImageFix" result="shape"/>
<feColorMatrix in="SourceAlpha" type="matrix" values="0 0 0 0 0 0 0 0 0 0 0 0 0 0 0 0 0 0 127 0" result="hardAlpha"/>
<feOffset dx="15.0603" dy="21.0844"/>
<feGaussianBlur stdDeviation="6.02412"/>
<feComposite in2="hardAlpha" operator="arithmetic" k2="-1" k3="1"/>
<feColorMatrix type="matrix" values="0 0 0 0 0 0 0 0 0 0 0 0 0 0 0 0 0 0 1 0"/>
<feBlend mode="normal" in2="shape" result="effect1_innerShadow_31_64"/>
</filter>
<filter id="filter1_i_31_64" x="247.095" y="161.145" width="710.846" height="264.903" filterUnits="userSpaceOnUse" color-interpolation-filters="sRGB">
<feFlood flood-opacity="0" result="BackgroundImageFix"/>
<feBlend mode="normal" in="SourceGraphic" in2="BackgroundImageFix" result="shape"/>
<feColorMatrix in="SourceAlpha" type="matrix" values="0 0 0 0 0 0 0 0 0 0 0 0 0 0 0 0 0 0 127 0" result="hardAlpha"/>
<feOffset dx="15.0603" dy="21.0844"/>
<feGaussianBlur stdDeviation="6.02412"/>
<feComposite in2="hardAlpha" operator="arithmetic" k2="-1" k3="1"/>
<feColorMatrix type="matrix" values="0 0 0 0 0 0 0 0 0 0 0 0 0 0 0 0 0 0 1 0"/>
<feBlend mode="normal" in2="shape" result="effect1_innerShadow_31_64"/>
</filter>
</defs>
</svg>
