<svg width="36" height="24" viewBox="0 0 36 24" fill="none" xmlns="http://www.w3.org/2000/svg">
<g filter="url(#filter0_ii_31_29)">
<path d="M17.11 13.0674C17.11 13.2255 17.0942 13.3787 17.0637 13.5272C17.0637 13.5272 17.0637 13.5272 17.0637 13.5291C16.8046 14.5045 15.3005 16.6914 7.04479 16.6914C7.04479 16.6914 11.4765 15.8056 11.5602 13.2669C11.5622 13.2419 11.5632 13.2178 11.5632 13.1937C11.577 11.2641 7.55505 9.05313 3.98524 7.47151L0.000732422 0C6.98766 2.86157 17.11 7.89848 17.11 13.0674Z" fill="url(#paint0_linear_31_29)"/>
<path d="M18.8929 13.0674C18.8929 13.2255 18.9086 13.3787 18.9392 13.5272C18.9392 13.5272 18.9392 13.5272 18.9392 13.5291C19.1982 14.5045 20.7024 16.6914 28.9581 16.6914C28.9581 16.6914 24.5264 15.8056 24.4426 13.2669C24.4407 13.2419 24.4397 13.2178 24.4397 13.1937C24.4259 11.2641 28.4478 9.05313 32.0176 7.47151L36.0021 0C29.0152 2.86157 18.8929 7.89848 18.8929 13.0674V13.0674Z" fill="url(#paint1_linear_31_29)"/>
<path d="M18.032 15.8548C17.178 15.8548 16.4441 16.4003 16.1132 17.1839C15.994 17.4672 15.928 17.7824 15.928 18.114C15.928 18.4022 15.9782 18.6788 16.0708 18.9323C16.0718 18.9351 16.0728 18.939 16.0747 18.9419L16.1132 19.0392C16.1132 19.0392 16.1132 19.0412 16.1142 19.0431L18.033 24L19.9519 19.0431C19.9519 19.0431 19.9529 19.0402 19.9529 19.0392L20.0002 18.9178C20.0888 18.6682 20.1381 18.3964 20.1381 18.113C20.1381 17.7815 20.0711 17.4663 19.9519 17.1829C19.6219 16.3993 18.8871 15.8538 18.033 15.8538L18.032 15.8548Z" fill="url(#paint2_linear_31_29)"/>
<path d="M18.0319 8.97314C18.886 8.97314 19.6198 8.42762 19.9508 7.64404C20.07 7.36067 20.136 7.04551 20.136 6.71395C20.136 6.42577 20.0858 6.14916 19.9932 5.89567C19.9922 5.89278 19.9912 5.88893 19.9892 5.88604L19.9508 5.78869C19.9508 5.78869 19.9508 5.78676 19.9498 5.78483L18.0309 2.71604L16.1121 5.78483C16.1121 5.78483 16.1111 5.78773 16.1111 5.78869L16.0638 5.91013C15.9752 6.15976 15.9259 6.43156 15.9259 6.71492C15.9259 7.04647 15.9929 7.36164 16.1121 7.645C16.4421 8.42858 17.1769 8.9741 18.0309 8.9741L18.0319 8.97314Z" fill="url(#paint3_linear_31_29)"/>
</g>
<defs>
<filter id="filter0_ii_31_29" x="-0.52713" y="-0.527862" width="37.0571" height="25.0557" filterUnits="userSpaceOnUse" color-interpolation-filters="sRGB">
<feFlood flood-opacity="0" result="BackgroundImageFix"/>
<feBlend mode="normal" in="SourceGraphic" in2="BackgroundImageFix" result="shape"/>
<feColorMatrix in="SourceAlpha" type="matrix" values="0 0 0 0 0 0 0 0 0 0 0 0 0 0 0 0 0 0 127 0" result="hardAlpha"/>
<feOffset dx="0.527862" dy="0.527862"/>
<feGaussianBlur stdDeviation="1.05572"/>
<feComposite in2="hardAlpha" operator="arithmetic" k2="-1" k3="1"/>
<feColorMatrix type="matrix" values="0 0 0 0 0 0 0 0 0 0 0 0 0 0 0 0 0 0 0.37 0"/>
<feBlend mode="normal" in2="shape" result="effect1_innerShadow_31_29"/>
<feColorMatrix in="SourceAlpha" type="matrix" values="0 0 0 0 0 0 0 0 0 0 0 0 0 0 0 0 0 0 127 0" result="hardAlpha"/>
<feOffset dx="-0.527862" dy="-0.527862"/>
<feGaussianBlur stdDeviation="1.58359"/>
<feComposite in2="hardAlpha" operator="arithmetic" k2="-1" k3="1"/>
<feColorMatrix type="matrix" values="0 0 0 0 1 0 0 0 0 1 0 0 0 0 1 0 0 0 0.75 0"/>
<feBlend mode="overlay" in2="effect1_innerShadow_31_29" result="effect2_innerShadow_31_29"/>
</filter>
<linearGradient id="paint0_linear_31_29" x1="3.01293" y1="0.397389" x2="14.8739" y2="8.69619" gradientUnits="userSpaceOnUse">
<stop/>
<stop offset="1" stop-color="#464953"/>
</linearGradient>
<linearGradient id="paint1_linear_31_29" x1="21.9051" y1="0.397389" x2="33.7661" y2="8.69619" gradientUnits="userSpaceOnUse">
<stop/>
<stop offset="1" stop-color="#464953"/>
</linearGradient>
<linearGradient id="paint2_linear_31_29" x1="16.6692" y1="16.0478" x2="20.5355" y2="17.4117" gradientUnits="userSpaceOnUse">
<stop/>
<stop offset="1" stop-color="#464953"/>
</linearGradient>
<linearGradient id="paint3_linear_31_29" x1="16.6671" y1="2.86503" x2="20.2575" y2="4.51373" gradientUnits="userSpaceOnUse">
<stop/>
<stop offset="1" stop-color="#464953"/>
</linearGradient>
</defs>
</svg>
