<svg width="21" height="14" viewBox="0 0 21 14" fill="none" xmlns="http://www.w3.org/2000/svg">
<g filter="url(#filter0_ii_90_125)">
<path d="M9.97997 7.62267C9.97997 7.71487 9.97078 7.80427 9.95297 7.89085C9.95297 7.89085 9.95297 7.89085 9.95297 7.89197C9.80185 8.46095 8.92442 9.73664 4.10861 9.73664C4.10861 9.73664 6.69378 9.21995 6.74262 7.73905C6.74377 7.72443 6.74435 7.71037 6.74435 7.69632C6.75239 6.57074 4.40626 5.28099 2.32387 4.35838L-0.000427246 0C4.07528 1.66925 9.97997 4.60745 9.97997 7.62267Z" fill="url(#paint0_linear_90_125)"/>
<path d="M11.02 7.62267C11.02 7.71487 11.0292 7.80427 11.047 7.89085C11.047 7.89085 11.047 7.89085 11.047 7.89197C11.1981 8.46095 12.0756 9.73664 16.8914 9.73664C16.8914 9.73664 14.3062 9.21995 14.2574 7.73905C14.2562 7.72443 14.2556 7.71037 14.2556 7.69632C14.2476 6.57074 16.5937 5.28099 18.6761 4.35838L21.0004 0C16.9247 1.66925 11.02 4.60745 11.02 7.62267Z" fill="url(#paint1_linear_90_125)"/>
<path d="M10.5178 9.24861C10.0196 9.24861 9.59156 9.56683 9.39849 10.0239C9.32897 10.1892 9.29047 10.3731 9.29047 10.5665C9.29047 10.7346 9.31977 10.8959 9.37378 11.0438C9.37436 11.0455 9.37493 11.0477 9.37608 11.0494L9.39849 11.1062C9.39849 11.1062 9.39849 11.1073 9.39907 11.1085L10.5184 14L11.6377 11.1085C11.6377 11.1085 11.6383 11.1068 11.6383 11.1062L11.6659 11.0354C11.7176 10.8897 11.7463 10.7312 11.7463 10.5659C11.7463 10.3725 11.7073 10.1887 11.6377 10.0234C11.4453 9.56627 11.0166 9.24805 10.5184 9.24805L10.5178 9.24861Z" fill="url(#paint2_linear_90_125)"/>
<path d="M10.5178 5.23445C11.0159 5.23445 11.444 4.91623 11.6371 4.45914C11.7066 4.29384 11.7451 4.10999 11.7451 3.91659C11.7451 3.74848 11.7158 3.58712 11.6618 3.43926C11.6612 3.43757 11.6607 3.43532 11.6595 3.43364L11.6371 3.37685C11.6371 3.37685 11.6371 3.37573 11.6365 3.3746L10.5172 1.58447L9.39785 3.3746C9.39785 3.3746 9.39727 3.37629 9.39727 3.37685L9.36969 3.44769C9.31798 3.59331 9.28925 3.75186 9.28925 3.91715C9.28925 4.11056 9.32832 4.2944 9.39785 4.4597C9.59034 4.91679 10.019 5.23501 10.5172 5.23501L10.5178 5.23445Z" fill="url(#paint3_linear_90_125)"/>
</g>
<defs>
<filter id="filter0_ii_90_125" x="-0.308347" y="-0.30792" width="21.6167" height="14.6158" filterUnits="userSpaceOnUse" color-interpolation-filters="sRGB">
<feFlood flood-opacity="0" result="BackgroundImageFix"/>
<feBlend mode="normal" in="SourceGraphic" in2="BackgroundImageFix" result="shape"/>
<feColorMatrix in="SourceAlpha" type="matrix" values="0 0 0 0 0 0 0 0 0 0 0 0 0 0 0 0 0 0 127 0" result="hardAlpha"/>
<feOffset dx="0.30792" dy="0.30792"/>
<feGaussianBlur stdDeviation="0.615839"/>
<feComposite in2="hardAlpha" operator="arithmetic" k2="-1" k3="1"/>
<feColorMatrix type="matrix" values="0 0 0 0 0 0 0 0 0 0 0 0 0 0 0 0 0 0 0.37 0"/>
<feBlend mode="normal" in2="shape" result="effect1_innerShadow_90_125"/>
<feColorMatrix in="SourceAlpha" type="matrix" values="0 0 0 0 0 0 0 0 0 0 0 0 0 0 0 0 0 0 127 0" result="hardAlpha"/>
<feOffset dx="-0.30792" dy="-0.30792"/>
<feGaussianBlur stdDeviation="0.923759"/>
<feComposite in2="hardAlpha" operator="arithmetic" k2="-1" k3="1"/>
<feColorMatrix type="matrix" values="0 0 0 0 1 0 0 0 0 1 0 0 0 0 1 0 0 0 0.75 0"/>
<feBlend mode="overlay" in2="effect1_innerShadow_90_125" result="effect2_innerShadow_90_125"/>
</filter>
<linearGradient id="paint0_linear_90_125" x1="1.75669" y1="0.23181" x2="8.67561" y2="5.07278" gradientUnits="userSpaceOnUse">
<stop stop-color="#ABB2CE"/>
<stop offset="1" stop-color="white"/>
</linearGradient>
<linearGradient id="paint1_linear_90_125" x1="12.7771" y1="0.23181" x2="19.6961" y2="5.07278" gradientUnits="userSpaceOnUse">
<stop stop-color="#ABB2CE"/>
<stop offset="1" stop-color="white"/>
</linearGradient>
<linearGradient id="paint2_linear_90_125" x1="9.72284" y1="9.36118" x2="11.9782" y2="10.1568" gradientUnits="userSpaceOnUse">
<stop stop-color="#ABB2CE"/>
<stop offset="1" stop-color="white"/>
</linearGradient>
<linearGradient id="paint3_linear_90_125" x1="9.72162" y1="1.67138" x2="11.816" y2="2.63313" gradientUnits="userSpaceOnUse">
<stop stop-color="#ABB2CE"/>
<stop offset="1" stop-color="white"/>
</linearGradient>
</defs>
</svg>
